<?xml version="1.0" encoding="utf-8"?>
<!-- Generator: Adobe Illustrator 22.1.0, SVG Export Plug-In . SVG Version: 6.00 Build 0)  -->
<svg version="1.1" id="Capa_1" xmlns="http://www.w3.org/2000/svg" xmlns:xlink="http://www.w3.org/1999/xlink" x="0px" y="0px"
	 width="206.3px" height="52.6px" viewBox="0 0 206.3 52.6" style="enable-background:new 0 0 206.3 52.6;" xml:space="preserve">
<style type="text/css">
	.st0{fill:#333334;}
	.st1{fill:#FFFFFF;}
	.st2{fill:#717475;}
	.st3{fill:#FF945F;}
	.st4{fill:#0ED8C5;}
	.st5{fill:#6878FF;}
	.st6{fill:#595D75;}
</style>
<g id="TEXT">
</g>
<g id="RED">
</g>
<g id="ORANGE">
</g>
<g>
	<path class="st0" d="M178,10.2c5.6,1.5,9.2,1.4,9.6,0.9c-0.1-0.6-3.1-2.6-8.7-4.1c-5.6-1.5-9.2-1.4-9.6-0.9
		C169.3,6.8,172.4,8.7,178,10.2z"/>
	
		<rect x="166.7" y="13.5" transform="matrix(0.248 -0.9688 0.9688 0.248 110.5238 185.7176)" class="st1" width="16.4" height="16.3"/>
	<path class="st0" d="M175.3,16.7l2.5,0.7c0.3,0.1,0.6-0.1,0.7-0.4l0.1-0.3c0.1-0.3-0.1-0.6-0.4-0.7l-2.5-0.7
		c-0.3-0.1-0.6,0.1-0.7,0.4l-0.1,0.3C174.8,16.3,175,16.6,175.3,16.7z"/>
	<path class="st0" d="M176,18.9c-2.2-0.6-4.5,0.7-5.1,3c-0.6,2.2,0.7,4.5,3,5.1c2.2,0.6,4.5-0.7,5.1-3
		C179.6,21.8,178.3,19.5,176,18.9z M178.1,23.8c-0.5,1.7-2.3,2.8-4,2.3s-2.8-2.3-2.3-4s2.3-2.8,4-2.3
		C177.5,20.2,178.6,22,178.1,23.8z"/>
	<circle class="st0" cx="174.9" cy="22.9" r="2.3"/>
	<path class="st0" d="M103.1,12.4c0.1-0.5,0.2-0.9,0.3-1.3c0-0.2,0-0.5,0.1-0.6c0.1-0.2,0.2-0.4,0.2-0.5c0.1-0.2,0.1-0.5,0.1-0.6
		c0.2-0.7,0.1-1.4-0.2-2.1c-0.2-0.5-0.5-0.9-0.9-1.3c-0.2-0.2-0.4-0.3-0.6-0.3c-0.4,0-0.6,0-1,0c-0.2,0-0.5,0.1-0.6,0.1
		c-0.1,0-0.2,0-0.2,0c-0.4,0.2-0.6,0.4-0.9,0.6c-0.4,0.3-0.6,0.6-0.9,1c-0.3,0.4-0.5,0.8-0.8,1.3c-0.2,0.2-0.3,0.5-0.4,0.7
		c-0.4,0.5-0.7,1.1-0.9,1.7c-0.2,0.8-0.5,1.5-0.6,2.4c-0.1,0.8-0.3,1.6-0.4,2.4c0,0.9,0,1.7,0.1,2.6c0,0.1,0,0.2,0,0.4
		c0,0.1-0.1,0.3-0.1,0.4c0,0.5,0,0.8,0,1.3v0.1c0.1,0.2,0,0.3-0.2,0.3s-0.3,0.1-0.4,0.3c0,0.1-0.1,0.1-0.2,0.2
		c-0.1,0.1-0.2,0.3-0.1,0.4c0.3,0.2,0.5,0.2,0.6,0c0,0,0,0,0.1,0c0,0.1,0,0.2,0,0.3c0,0.5,0,1.1,0,1.6c0,0.3-0.1,0.5-0.3,0.7
		c-0.2,0.3-0.4,0.5-0.5,0.8c-0.5,0.6-1,1.2-1.7,1.5c-0.1,0-0.2,0.2-0.2,0.1c-0.2-0.1-0.5-0.2-0.5-0.4c-0.2-0.2-0.2-0.5-0.3-0.6
		c0-0.1-0.1-0.1-0.1-0.2c0-0.1-0.1-0.2-0.1-0.3c0-0.7,0-1.4,0-2.1c0-1.2,0-2.3,0-3.4c0-0.8,0-1.6,0-2.4c0-0.2,0.1-0.5,0-0.6
		c-0.1-0.5-0.2-0.9-0.3-1.3c-0.1-0.3-0.1-0.5-0.2-0.7c-0.3-0.5-0.7-0.6-1.3-0.5c-0.7,0-1.3,0.1-1.8,0.5c-0.5,0.4-0.9,0.7-1.4,1.1
		c-0.5,0.5-0.8,0.9-1.3,1.4c0-0.2-0.1-0.4-0.1-0.5c0.1-0.7,0.2-1.4,0.2-2.2c0-0.3-0.1-0.4-0.3-0.4s-0.4-0.1-0.5-0.1
		c-0.1,0-0.2,0-0.2,0c-0.3,0-0.5,0.1-0.7,0c-0.4-0.2-0.5,0-0.8,0.2c-0.1,0.1-0.2,0.1,0,0.3c0.1,0.1,0.1,0.2,0.1,0.3
		c-0.1,0.7-0.1,1.5,0.1,2.3c0.1,0.5,0.1,1,0.1,1.4s0,0.9,0.1,1.4c0,0.4,0.1,0.8,0.1,1.2c0,0.2-0.1,0.3-0.3,0.3c-0.2,0-0.4,0-0.5,0
		c-0.1,0-0.3,0-0.4,0s-0.2,0-0.2-0.2c0-0.4,0.1-0.8,0-1.2C82,19.5,82,19,81.8,18.5c-0.2-0.4-0.3-0.9-0.4-1.3
		c-0.1-0.3-0.3-0.5-0.4-0.8c-0.1-0.5-0.3-0.8-0.5-1.2c-0.2-0.3-0.4-0.5-0.6-0.8c-0.1-0.1-0.3-0.2-0.4-0.1c-0.2,0.1-0.3,0-0.5-0.1
		c-0.1-0.1-0.2-0.1-0.3-0.1c-0.2-0.1-0.4-0.1-0.5-0.1c-0.4-0.1-0.7-0.1-1.1,0.1c-0.1,0-0.2,0.1-0.3,0.1c-0.5,0-0.7,0.2-1.1,0.5
		c-0.3,0.2-0.5,0.5-0.8,0.7c-0.3,0.3-0.5,0.5-0.6,0.7s-0.4,0.6-0.5,1c-0.3,0.5-0.4,1.1-0.5,1.6c-0.1,0.6-0.2,1.3-0.3,1.9
		c-0.2,0.8-0.2,1.7-0.1,2.5c0,0.3,0,0.5-0.2,0.7c-0.1,0.1-0.3,0.3-0.4,0.4c-0.5,0.5-1,1.1-1.6,1.5c-0.3,0.2-0.5,0.4-0.7,0.6
		c-0.1,0.1-0.1,0.1-0.2,0.1c-0.4,0.1-0.7,0.2-1,0.2c-0.7,0.1-1.2-0.2-1.6-0.6c-0.2-0.2-0.3-0.4-0.4-0.6c-0.2-0.4-0.5-0.6-0.6-1
		c-0.1-0.2-0.1-0.4-0.1-0.5c-0.3-0.5-0.4-1-0.5-1.4c-0.1-0.5-0.2-1.1-0.2-1.6c0-0.4,0.1-0.7,0.1-1.1c0.1-0.5,0.1-0.9,0.3-1.4
		c0.2-0.5,0.5-1.1,0.6-1.7c0-0.1,0.1-0.2,0.2-0.3c0.2-0.2,0.3-0.5,0.5-0.6c0.3-0.4,0.6-0.7,1.1-0.9c0.1,0,0.2,0,0.3,0
		c0.1,0,0.2,0,0.4,0.1c0.2,0.1,0.3,0.2,0.4,0.3c0.1,0.3,0.3,0.5,0.3,0.9c0,0.6,0,1.2-0.3,1.8c-0.1,0.3-0.3,0.5-0.4,0.8
		c-0.1,0.2-0.3,0.4-0.5,0.5S68.1,19.8,68,20c0,0.1,0,0.2,0.1,0.3c0.2,0.2,0.5,0.4,0.6,0.5c0.1,0.1,0.6,0.2,0.7,0.1l0.1-0.1
		c0.3-0.4,0.5-0.6,0.8-1c0.4-0.5,0.6-1,0.9-1.5c0.1-0.2,0.1-0.3,0.2-0.5c0-0.3,0-0.5,0.1-0.7c0.1-0.5,0-1.2-0.2-1.7
		c-0.1-0.3-0.3-0.5-0.5-0.6C69.9,14,69,13.9,68,14.1c-0.5,0.1-0.9,0.3-1.3,0.5c-0.4,0.4-0.7,0.7-1.1,1.2c-0.2,0.2-0.3,0.4-0.5,0.5
		c-0.4,0.5-0.7,1.1-0.9,1.7c-0.2,0.4-0.3,0.7-0.4,1.1c0,0.2-0.1,0.4-0.1,0.5c-0.5,0-0.8-0.1-1.2-0.1c0-0.2-0.1-0.4-0.1-0.6
		c-0.1-0.4-0.1-0.7-0.3-1.1c-0.4-0.6-0.6-1.3-0.9-1.9c-0.1-0.3-0.3-0.5-0.5-0.6l-0.1-0.1c-0.5-0.5-1-0.7-1.6-0.7
		c-0.1,0-0.2,0-0.3-0.1c-0.3-0.2-0.5-0.1-0.6,0.3C58.1,14.8,58,15,58,15.2c-0.1,0.1-0.1,0.3-0.2,0.4c-0.2,0.5-0.3,1-0.5,1.4
		c-0.2,0.5-0.4,1-0.5,1.5c-0.2,0.5-0.4,1.1-0.5,1.5c0,0.1-0.1,0.3,0,0.4c0,0.1,0.2,0.2,0.3,0.2c0.4-0.1,0.6-0.3,0.7-0.6
		c0.2-0.4,0.3-0.6,0.5-1c0.1-0.3,0.3-0.5,0.4-0.7c0.2-0.5,0.4-1.1,0.5-1.6c0.1-0.2,0.1-0.3,0.2-0.5s0.3-0.3,0.4-0.1
		c0.1,0.1,0.1,0.2,0.2,0.4c0.3,0.6,0.5,1.3,0.6,2c0.1,0.5,0.2,1,0.3,1.4c-1,0.2-1.9,0.5-2.7,0.9c-0.3,0.2-0.5,0.3-0.9,0.5
		c-0.1,0-0.1,0-0.2,0.1c-0.1,0.1-0.3,0.2-0.4,0.3c-0.2,0.2-0.3,0.4-0.5,0.5c-0.4,0.1-0.5,0.5-0.6,0.6s-0.3,0.5-0.5,0.8
		c-0.1,0.3-0.3,0.6-0.4,0.9c-0.1,0.5-0.1,0.9-0.1,1.3c0,0.1,0,0.1-0.1,0.2c-0.1,0.2-0.3,0.3-0.4,0.4c-0.5,0.5-0.9,0.5-1.5,0.2
		c-0.4-0.2-0.5-0.5-0.5-0.8c-0.2-0.6-0.4-1.3-0.4-1.9c0-0.9-0.1-1.9-0.1-2.8c0-0.3,0-0.6,0-0.9c0-1.2-0.1-2.3-0.1-3.4
		c0-0.6,0-1.3,0-1.8c0-0.3-0.1-0.4-0.4-0.4c-0.4-0.1-0.7,0.2-1.2,0.2c-0.2,0-0.2,0.1-0.2,0.3c0,0.3,0,0.5,0,0.7
		c-0.3-0.4-0.6-0.7-1-0.9c-0.1,0-0.2-0.1-0.3-0.1c-0.1-0.3-0.4-0.2-0.5-0.2c-0.4,0-0.8,0.1-1.2,0.2c-0.3,0.1-0.6,0.2-0.9,0.3
		c-0.5,0.4-1,0.7-1.4,1.1c-0.4,0.4-0.5,0.8-0.8,1.3v0.1c0,0.2-0.1,0.3-0.1,0.5c-0.2,0.4-0.4,0.8-0.5,1.2c-0.1,0.5-0.2,1-0.2,1.5
		c0,0.6,0,1.3,0.1,1.9c0,0.3,0.1,0.5,0.1,0.7c0,0.2,0,0.5,0.1,0.6c0.2,0.5-0.1,0.7-0.3,1c-0.2,0.4-0.5,0.7-0.8,1
		c-0.4,0.4-0.6,0.7-1,1c-0.2,0.2-0.5,0.4-0.6,0.2c-0.3-0.2-0.2-0.5-0.1-0.7c0.3-0.7,0.5-1.4,0.8-2.1c0.2-0.5,0.2-0.9-0.1-1.4
		c-0.1-0.1-0.2-0.1-0.3-0.2c-0.3-0.3-0.6-0.4-1-0.4c-0.2,0-0.5,0-0.6,0.1c-0.8,0.2-1.5,0.3-2.2,0.7c-0.1,0-0.1,0-0.2,0.1
		c0.1-0.2,0.3-0.4,0.5-0.5l0.1-0.1c0.1-0.2,0.3-0.5,0.4-0.6l0.1-0.1c0.2-0.4,0.4-0.7,0.6-1.1c0.1-0.2,0.3-0.5,0.5-0.6
		c0.2-0.4,0.4-0.6,0.5-1c0.3-0.5,0.5-1.1,0.7-1.5c0.2-0.5,0.5-0.9,0.6-1.4c0.1-0.2,0.2-0.5,0.3-0.6c0.1-0.4,0.2-0.7,0.5-1
		c0.2-0.1,0.3-0.3,0.4-0.5c0.2-0.3,0.4-0.6,0-0.9l0,0c-0.1-0.3-0.5-0.5-0.6-0.5c-0.3,0.1-0.7,0.4-0.8,0.6c-0.1,0.3-0.2,0.5-0.5,0.6
		c-0.5,0.2-0.9,0.5-1.4,0.6c-0.3,0.1-0.5,0.2-0.8,0.2c-0.5,0-1.2,0.1-1.8,0.1c-0.3,0-0.5-0.2-0.7-0.3v-0.1c-0.1-0.1-0.1-0.1-0.2-0.2
		c-0.3-0.1-0.5,0-0.7,0.2c-0.2,0.1-0.3,0.3-0.4,0.5c-0.2,0.3-0.3,0.5-0.5,0.7c-0.1,0.1-0.1,0.2-0.2,0.4c0.1,0.1,0.2,0.2,0.3,0.3
		c0,0.1,0.1,0.1,0.1,0.2c-0.1,0.3-0.1,0.6-0.3,0.9c-0.3,0.5-0.5,0.8-0.8,1.2c-0.2,0.3-0.3,0.3,0,0.5c0.1,0.1,0.4,0.2,0.4,0.2
		c0.2-0.1,0.3-0.3,0.5-0.5c0.2-0.3,0.4-0.5,0.5-0.8c0.3-0.3,0.5-0.6,0.7-0.9c0.1-0.1,0.1-0.2,0.3-0.2c0.5,0,1.1,0.2,1.6,0
		c0.4-0.1,0.7-0.2,1.1-0.4c0.1,0,0.2-0.2,0.3-0.2c0.5-0.2,0.9-0.4,1.4-0.6c0.1,0,0.1,0,0.2,0c-0.1,0.3-0.2,0.5-0.4,0.8
		c-0.2,0.4-0.4,0.6-0.5,1c-0.3,0.5-0.6,1.1-0.9,1.6c-0.3,0.5-0.6,0.9-0.9,1.3c-0.2,0.3-0.5,0.5-0.6,0.8c-0.1,0.1-0.1,0.2-0.2,0.3
		c-0.3,0.4-0.5,0.7-0.9,1.2c-0.1,0.2-0.3,0.4-0.4,0.5c-0.2,0.2-0.4,0.5-0.5,0.6c-0.4,0.4-0.6,0.8-1,1.2c-0.3,0.4-0.5,0.6-0.8,1
		c-0.3,0.3-0.5,0.5-0.8,0.8c-0.2,0.2-0.2,0.3-0.1,0.5c0.1,0.3,0.4,0.5,0.5,0.6c0.4,0.4,0.7,0.5,1.2,0.4c0.4-0.1,0.6-0.2,0.6-0.6
		c0-0.1,0.1-0.2,0.2-0.3c0.3-0.4,0.5-0.7,0.8-1.2c0.4-0.5,0.6-1,1.2-1.4c0.3-0.2,0.5-0.5,0.7-0.6c0.5-0.5,1.2-0.8,1.9-1
		c0.5-0.1,0.7,0.1,0.7,0.5c0,0.1,0,0.3-0.1,0.4c-0.2,0.6-0.4,1.3-0.5,1.9c-0.1,0.3-0.1,0.5-0.1,0.7c0,0.1,0.1,0.3,0.1,0.4
		c0.1,0.5,0.5,0.8,1,0.9c0.5,0,1-0.2,1.4-0.4c0.5-0.2,0.9-0.5,1.3-0.7c0.2-0.1,0.3-0.3,0.4-0.4c0.1-0.1,0.1-0.3,0.2-0.4
		c0.3-0.3,0.5-0.6,0.8-1c0.1,0.3,0.1,0.5,0.3,0.6c0.1,0.2,0.4,0.4,0.4,0.6c0.1,0.4,0.4,0.5,0.6,0.8c0.2,0.3,0.5,0.5,0.7,0.5
		c1,0.4,2,0.6,3.1,0.3c0.2-0.1,0.4-0.1,0.5-0.3c0.4-0.4,0.7-0.7,1.1-1.1c0.2-0.2,0.3-0.3,0.4-0.5c0.2,0.4,0.5,0.6,0.6,1
		c0.2,0.4,0.5,0.6,0.9,0.7c0.5,0.1,1,0,1.4,0c0.4,0,0.6-0.1,0.9-0.3c0.3-0.2,0.5-0.5,0.9-0.7c0,0,0.1,0.1,0.2,0.1
		c0.2,0.2,0.5,0.5,0.6,0.6c0.5,0.4,1,0.5,1.4,0.5s0.9,0,1.4-0.2c0.2-0.1,0.4,0,0.5-0.1c0.3-0.2,0.6-0.4,0.9-0.5
		c0.1-0.1,0.3-0.1,0.3-0.2c0.2-0.2,0.3-0.5,0.5-0.6c0.4-0.5,0.6-0.9,0.9-1.4c0.2-0.4,0.3-0.8,0.5-1.2c0.5-0.9,0.5-1.9,0.5-2.9
		c0-0.3,0.1-0.5,0.1-0.9c0.4,0,0.6,0,0.9,0c0.2,0,0.2,0.1,0.2,0.3c0,0.4-0.1,0.7-0.1,1.1c0.1,0.8,0.2,1.6,0.4,2.4
		c0.1,0.5,0.3,0.9,0.5,1.4c0.1,0.2,0.2,0.4,0.3,0.5c0.3,0.5,0.5,0.9,1,1.3c0.2,0.1,0.3,0.3,0.5,0.4c0.4,0.4,0.8,0.5,1.3,0.6
		c0.5,0.1,1,0.1,1.5,0.1c0.1,0,0.2,0,0.2-0.1c0.3-0.1,0.5-0.2,0.8-0.4c0.2-0.1,0.5-0.2,0.6-0.3c0.5-0.3,0.9-0.5,1.3-0.8
		c0.3-0.3,0.5-0.5,0.8-0.8c0.3-0.3,0.5-0.6,0.8-0.9c0.1,0.3,0.1,0.5,0.2,0.6c0.2,0.6,0.5,1.3,1.1,1.7c0.3,0.2,0.5,0.5,0.8,0.6
		c0.2,0.1,0.4,0.2,0.5,0.3c0.4,0.1,0.7,0.3,1.2,0.3c0.3,0,0.6,0,0.9-0.1c0.5-0.2,0.9-0.5,1.2-0.8c0.4-0.5,0.8-0.9,1.1-1.4
		c0.1-0.2,0.2-0.4,0.3-0.5c0.1-0.2,0.3-0.3,0.4-0.5c0.3-0.7,0.5-1.5,0.8-2.3c0-0.1,0.1-0.2,0.2-0.3c0.4-0.1,0.6-0.3,1-0.4
		c0.1,0,0.3-0.1,0.5-0.1c0,0.1,0,0.2,0,0.2c0,0.5,0,1,0,1.5c0,1.4,0,2.8-0.1,4.2c0,0.2,0,0.2,0.1,0.2c0.2,0.1,0.5,0,0.6,0
		c0.4,0,0.6,0,1-0.1c0.2-0.1,0.4-0.2,0.4-0.4c0-0.5,0-1.1,0-1.6c0-0.5,0.1-0.9,0.1-1.4c0-0.6,0.1-1.3,0.1-1.8c0-0.6,0-1.3,0-2
		c0-0.5,0-0.9,0.1-1.4c0-0.5,0.3-1,0.6-1.4c0.4-0.5,0.8-1,1.3-1.4c0.4-0.4,0.9-0.7,1.4-1c0.1-0.1,0.2-0.1,0.3-0.1
		c0.1,0,0.2,0.1,0.2,0.1c0,0.1,0.1,0.3,0.1,0.5c0,0.5,0.1,0.9,0.1,1.4c0,0.4,0.1,0.7-0.1,1c0,0.1,0,0.2,0,0.2c0,0.5,0,1.1,0,1.6
		c0,0.5,0,0.9,0,1.4c0,0.3,0.1,0.5,0.1,0.8c0,0.5,0,1,0.1,1.5c0,0.3,0,0.6,0,0.9c0.2,0.8,0.4,1.6,0.5,2.4c0.1,0.3,0.3,0.4,0.5,0.4
		c0.3,0.1,0.6,0.1,0.9,0.3c0.2,0.1,0.5,0.1,0.6,0.1c0.1,0,0.3,0,0.5,0c-0.2,0.2-0.3,0.4-0.5,0.5c-0.2,0.4-0.5,0.6-0.6,1
		c-0.3,0.5-0.5,1-0.8,1.4c-0.4,0.7-0.5,1.5-0.6,2.4c0,0.1,0,0.2,0,0.3c0.1,0.5,0.2,0.8,0.3,1.3c0.1,0.2,0.2,0.4,0.3,0.5
		c0.2,0.2,0.4,0.3,0.5,0.5c0.3,0.3,0.8,0.4,1,0.3c0.2,0.1,0.4,0.2,0.5,0.2c0.5-0.2,1-0.4,1.4-0.6c0.4-0.4,0.8-0.7,1.2-1.1
		c0.4-0.5,0.6-0.9,0.9-1.4c0.2-0.3,0.3-0.6,0.5-0.9c0.4-0.9,0.6-1.8,0.7-2.7c0-0.3,0.1-0.5,0.2-0.8c0.1-0.5,0.2-0.8,0.3-1.3
		c0-0.2-0.1-0.4-0.1-0.5c0-0.3,0.1-0.6,0.1-0.9c0-0.5,0.1-1,0.1-1.5c0-0.5,0-1.1,0-1.6c0-0.3,0-0.6,0-0.9c0-0.1,0.1-0.2,0-0.3
		c-0.1-0.3,0-0.5,0.3-0.6c0.1,0.1,0.2,0.2,0.2,0.4c0.1,0.2,0.1,0.4,0.2,0.5c0,0.2,0,0.4,0,0.5c-0.1,0.4-0.1,0.4,0.2,0.5
		c0.1,0,0.1,0,0.2,0c0.2,0,0.3,0,0.4-0.2c0-0.2,0.2-0.3,0.4-0.3c0.1,0,0.2-0.1,0.3-0.1c0.1,0.1,0.1,0.1,0.2,0.2
		c0.1,0.2,0.3,0.2,0.4,0.1c0.2-0.1,0.3-0.2,0.3-0.4c-0.1-0.5-0.1-0.9-0.2-1.4c-0.1-0.7-0.5-1.1-1.3-1.2c-0.1,0-0.2,0-0.2,0
		c0.5-0.5,1-1,1.4-1.4c0.6-0.7,1.2-1.4,1.6-2.4c0.1-0.3,0.3-0.5,0.4-0.7c0.1-0.1,0.1-0.3,0.2-0.4c0.1-0.2,0.2-0.5,0.3-0.6
		C102.8,13.2,102.9,12.7,103.1,12.4z M49.1,24.5c0,0.6-0.4,1.2-0.6,1.7c-0.1,0.2-0.3,0.4-0.5,0.5c-0.2,0.2-0.4,0.3-0.6,0.3
		s-0.5-0.1-0.6-0.3l-0.1-0.1c-0.4-0.2-0.6-0.5-0.9-0.9c-0.2-0.3-0.4-0.5-0.5-0.8c-0.2-0.4-0.3-0.8-0.5-1.2c-0.4-1.1-0.5-2.3-0.5-3.3
		c0-0.5,0-1.2,0.1-1.7c0.1-0.5,0.3-1,0.5-1.4c0.2-0.5,0.5-0.9,0.6-1.4c0.2-0.3,0.4-0.5,0.5-0.7c0.2-0.3,0.5-0.5,0.7-0.5h0.1
		c0.1,0,0.2,0.1,0.3,0c0.2-0.1,0.4,0,0.5,0.2c0.1,0.2,0.3,0.4,0.4,0.5c0.4,0.5,0.6,1.2,0.6,1.8c0.1,0.6,0.3,1.2,0.4,1.8
		s0.2,1.2,0.1,1.8c-0.1,0.4-0.1,0.7-0.1,1.2c0,0.1,0.1,0.2,0.2,0.3c0.1,0,0.1,0.1,0.1,0.1C49.2,23,49.1,23.7,49.1,24.5z M60.1,21.7
		c-0.1,0.5-0.2,0.9-0.3,1.4s-0.2,0.8-0.4,1.3s-0.4,0.8-0.6,1.3c-0.2,0.3-0.4,0.5-0.5,0.8c-0.2,0.4-0.5,0.5-0.9,0.7
		c-0.2,0.1-0.5-0.1-0.7-0.4c-0.2-0.4-0.4-0.7-0.5-1.1c0-0.1,0-0.2,0-0.4c0-0.4,0.1-0.8,0.2-1.2c0-0.2,0.2-0.4,0.3-0.5
		c0.2-0.4,0.5-0.7,0.6-1.2s0.6-0.7,0.9-1.1c0.1-0.1,0.3-0.2,0.5-0.3c0.3-0.2,0.5-0.3,0.7-0.4c0.3-0.1,0.5-0.2,0.8-0.4
		C60.2,20.8,60.2,21.2,60.1,21.7z M79.4,23.3c-0.1,0.2-0.1,0.4-0.2,0.6c-0.2,0.5-0.6,1.1-1,1.6c-0.1,0.2-0.2,0.3-0.3,0.5
		c-0.2,0.4-0.5,0.5-0.7,0.7l-0.1,0.1c-0.2,0.3-0.4,0.2-0.6,0c-0.4-0.3-0.6-0.6-0.7-1.1c-0.2-0.5-0.3-1.1-0.4-1.6
		c-0.2-0.8-0.3-1.6-0.3-2.4c-0.1-0.8-0.1-1.6-0.1-2.4c0-0.1,0.1-0.3,0.1-0.4c0.2-0.6,0.4-1.3,0.6-1.9c0.1-0.2,0.2-0.3,0.3-0.5
		c0,0.4-0.1,0.7-0.1,1c0,0.3,0,0.5,0,0.7c0.1,0.5,0.1,0.8,0.2,1.2c0.2,0.5,0.4,1,0.7,1.3c0.2,0.1,0.3,0.4,0.5,0.5
		c0.3,0.2,0.5,0.3,0.9,0.4c0.1,0.1,0.3,0.1,0.4,0.2c0.2,0.1,0.4,0.2,0.5,0.2c0.2,0.1,0.4,0.1,0.6,0.1C79.7,22.4,79.5,22.9,79.4,23.3
		z M80,20.8c0,0.1-0.1,0.2-0.2,0.1c-0.4-0.2-0.7-0.3-1-0.6c-0.5-0.5-0.8-1.2-1-1.9c-0.1-0.6-0.1-1.3,0.1-1.9c0.1-0.4,0.1-0.7,0.3-1
		c0.1-0.2,0.2-0.5,0.6-0.6c0.2,0.4,0.5,0.7,0.6,1.1c0.2,0.4,0.2,0.8,0.3,1.3c0.1,0.5,0.1,1.1,0.2,1.6c0.1,0.5,0.1,0.8,0.2,1.3
		C80.1,20.3,80,20.5,80,20.8z M95.3,25.7c0,0.1,0,0.3,0,0.4c0,0.5,0,0.9-0.1,1.3c0,0.5,0,1-0.1,1.4c-0.1,0.7-0.3,1.4-0.5,2
		c-0.3,0.5-0.5,1-0.7,1.5c-0.1,0.3-0.3,0.5-0.5,0.7c-0.1,0.2-0.2,0.4-0.4,0.5c-0.3,0.4-0.5,0.7-0.9,1.2c-0.3-0.2-0.4-0.5-0.5-0.7
		c-0.3-0.5-0.3-1.1-0.2-1.6c0.1-0.5,0.2-0.8,0.4-1.3c0.1-0.5,0.2-0.9,0.4-1.3c0.2-0.5,0.5-1,0.8-1.4c0.1-0.3,0.3-0.5,0.5-0.7
		c0.1-0.2,0.3-0.3,0.4-0.4c0.4-0.5,0.7-0.9,1.1-1.4c0.1-0.1,0.1-0.3,0.2-0.5c0.1-0.1,0.2-0.2,0.2-0.3h0.1
		C95.4,25.4,95.3,25.6,95.3,25.7z M101.9,9.1c-0.1,0.8-0.4,1.7-0.6,2.5c-0.1,0.4-0.2,0.7-0.4,1c-0.2,0.5-0.5,1.1-0.7,1.5
		c-0.4,0.7-0.7,1.4-1.1,2.2c-0.1,0.2-0.2,0.3-0.3,0.5c-0.3,0.4-0.5,0.7-0.6,1.1c-0.1,0.3-0.3,0.5-0.5,0.7c0,0.1-0.1,0.1-0.1,0.1
		h-0.1c0-0.4,0.1-0.6,0.1-1v-0.1c-0.3-0.5-0.1-0.9-0.1-1.4s0-0.9,0-1.3c0-0.7,0.1-1.5,0.4-2.3c0.2-0.5,0.3-0.9,0.4-1.4
		c0.1-0.3,0.2-0.6,0.4-0.9c0.2-0.4,0.3-0.6,0.5-0.9c0.2-0.3,0.5-0.5,0.6-0.8c0.3-0.4,0.5-0.6,0.8-1c0.3-0.4,0.5-0.7,0.9-0.9l0.1-0.1
		c0.2,0.2,0.4,0.3,0.5,0.5c0.1,0.5,0,1,0,1.4C101.9,8.8,101.9,8.9,101.9,9.1z"/>
	<path class="st0" d="M131.4,20.9c-0.1,0.1-0.2,0.2-0.3,0.2c-0.2,0.1-0.5,0.1-0.6,0.1c-0.1,0-0.3,0-0.4,0c-0.2,0-0.2-0.1-0.3-0.2
		c0-0.5,0-1-0.1-1.4c-0.1-0.6-0.2-1.2-0.4-1.8c-0.2-0.5-0.4-1-0.5-1.5c0-0.1-0.1-0.3-0.1-0.4c-0.2-0.4-0.4-0.6-0.5-1
		c-0.2-0.3-0.4-0.5-0.6-0.8c-0.1-0.1-0.2-0.1-0.3-0.1c-0.2,0.1-0.4,0-0.5-0.1c-0.1,0-0.2-0.1-0.2-0.1c-0.3-0.1-0.5-0.1-0.8-0.2
		c-0.3-0.1-0.5,0-0.8,0.1c-0.1,0.1-0.2,0.1-0.4,0.1c-0.4,0-0.7,0.2-1.1,0.5c-0.3,0.2-0.5,0.5-0.8,0.7c-0.5,0.4-0.8,0.8-1.1,1.4
		c-0.3,0.6-0.5,1.3-0.6,2c0,0.3-0.1,0.5-0.2,0.8c-0.1,0.5-0.1,0.9-0.2,1.3c0,0.5-0.1,1-0.1,1.5c0,0.3,0,0.5-0.2,0.8
		c-0.3,0.4-0.5,0.8-0.8,1.3c-0.4,0.5-0.7,1-1.2,1.4c-0.3,0.2-0.5,0.5-0.8,0.6c-0.1,0.1-0.3,0.1-0.5,0.1c-0.3,0-0.5,0.1-0.8-0.2
		c-0.1-0.1-0.3-0.2-0.4-0.3c-0.2-0.1-0.4-0.3-0.5-0.5c-0.2-0.3-0.3-0.6-0.5-0.9c-0.3-0.7-0.2-1.5-0.3-2.4c0-0.5,0-0.9,0-1.4
		c0-0.4,0-0.6,0-1c0-0.3,0-0.5,0-0.9c0-0.2,0-0.4,0-0.6c0-0.7,0.1-1.4,0.1-2.1c0-0.5,0-1,0.1-1.5c0-0.4,0-0.7,0-1.1
		c0-0.4,0-0.7,0-1.1c0.5,0.2,0.9,0.4,1.4,0.5c0.7,0.2,1.4,0.3,2.2,0.2c0.6-0.1,1.1-0.4,1.5-0.7c0.4-0.4,0.6-0.9,0.7-1.4
		c0-0.2,0.1-0.5-0.1-0.6c-0.2-0.3-0.4-0.6-0.7-0.8c-0.8-0.5-1.7-0.5-2.6-0.2c-0.3,0.1-0.5,0.4-0.5,0.6c0,0.2,0,0.3,0.3,0.3
		c0.2,0,0.4,0,0.5,0c0.4,0,0.7,0,1.1,0.2c0.4,0.1,0.5,0.4,0.2,0.7c-0.1,0.1-0.3,0.3-0.4,0.3c-0.3,0.1-0.6,0.1-0.9,0.1
		c-0.9-0.1-1.8-0.2-2.6-0.7c-0.2-0.1-0.4-0.3-0.4-0.5c0-0.3,0-0.6,0-0.9c0-0.3,0-0.5,0-0.9c0-0.8,0-1.5,0-2.4c0-0.2-0.1-0.3-0.3-0.4
		c-0.2,0-0.4-0.1-0.5-0.1c-0.4,0-0.7,0-1.1,0c-0.3,0-0.4,0.2-0.4,0.5c0,0.7,0,1.4,0,2.2v1.1c-0.5-0.3-0.8-0.4-1.3-0.5
		c-1.4-0.3-2.6,0-3.7,0.7c-0.2,0.1-0.3,0.2-0.5,0.3c-0.5,0.5-0.6,1-0.7,1.6c0,0.3-0.1,0.5,0.1,0.8c0.2,0.3,0.4,0.3,0.6,0.1
		c0.1-0.1,0.1-0.2,0.1-0.3c0.1-0.7,0.5-1.4,1.2-1.7c0.6-0.3,1.2-0.3,1.8-0.2c0.8,0.1,1.5,0.4,2.3,0.8c0.2,0.1,0.2,0.2,0.2,0.4
		c0,0.4,0,0.7,0,1.1c0,1.3-0.1,2.4-0.1,3.7c0,0.8,0,1.6,0,2.5c0,0.8,0,1.6,0,2.4c-0.3,0-0.6,0-0.9,0.1c-0.3,0.1-0.3,0-0.3-0.3
		c0-0.5,0-0.9,0-1.3c0-0.2,0-0.3,0-0.5c-0.2-0.9-0.4-1.9-0.7-2.7c-0.1-0.2-0.1-0.4-0.2-0.5c-0.2-0.4-0.4-0.6-0.5-0.9
		s-0.4-0.5-0.5-0.8c-0.1-0.1-0.2-0.2-0.4-0.2c-0.1,0-0.3,0-0.4-0.1c-0.2,0-0.3-0.1-0.4-0.2c-0.6-0.3-1.4-0.2-2,0.1
		c-0.4,0.1-0.8,0.3-1.1,0.6c-0.4,0.5-0.9,0.8-1.3,1.3c-0.5,0.5-0.6,1.1-0.8,1.7c-0.4,1.1-0.5,2.2-0.6,3.3c-0.1,0.7-0.1,1.5,0,2.3
		c0.1,0.7,0.2,1.4,0.5,2.2c0.3,0.6,0.6,1.3,1.2,1.7c0.5,0.3,0.9,0.8,1.5,0.9c0.2,0,0.4,0.2,0.5,0.2c0.4,0,0.7,0,1.1,0
		c0.5,0,0.8-0.4,1.2-0.6c0.3-0.2,0.5-0.5,0.7-0.8c0.2-0.3,0.5-0.5,0.6-0.8c0.1-0.2,0.2-0.4,0.4-0.5c0.1-0.1,0.3-0.3,0.3-0.4
		c0.3-0.7,0.5-1.4,0.8-2.1c0.1-0.3,0.1-0.5,0.5-0.6l0,0c0.3-0.1,0.6-0.2,0.9-0.4c0,0.1,0.1,0.2,0.1,0.3c0.1,0.6,0.1,1.3,0.2,1.9
		c0.2,1.4,0.7,2.4,1.9,3.3c0.1,0.1,0.3,0.1,0.4,0.2c0.5,0.1,0.9,0.2,1.4,0.2c0.3,0,0.6,0,0.9-0.1c0.3-0.1,0.5-0.3,0.7-0.4
		c1-0.6,1.6-1.6,2.3-2.6c0.1-0.2,0.2-0.4,0.3-0.5c0,0.1,0,0.1,0.1,0.1c0.1,0.4,0.1,0.7,0.3,1.1c0.3,0.6,0.6,1.3,1.2,1.7
		c0.5,0.3,0.9,0.8,1.5,0.9c0.2,0,0.4,0.1,0.5,0.2c0.2,0,0.3,0.1,0.5,0c0.3,0,0.6,0,0.9-0.2c0.5-0.3,0.9-0.5,1.2-0.8
		c0.4-0.5,0.8-0.8,1.1-1.4c0.2-0.3,0.3-0.5,0.5-0.7c0.1-0.1,0.1-0.2,0.2-0.3c0.3-0.8,0.5-1.5,0.8-2.4c0-0.1,0.1-0.2,0.2-0.2
		c0.5-0.2,1-0.4,1.5-0.5c0.5-0.1,0.6-0.5,0.8-0.7v-0.1C132,20.6,131.6,20.6,131.4,20.9z M109.2,23.3c-0.1,0.2-0.1,0.4-0.2,0.5
		c-0.3,0.5-0.5,1.1-1,1.6c-0.1,0.2-0.2,0.3-0.3,0.5c-0.2,0.4-0.5,0.5-0.7,0.7l0,0c-0.5,0.3-0.5,0.3-0.9-0.1
		c-0.4-0.4-0.5-0.7-0.6-1.2c0-0.2-0.1-0.4-0.2-0.5c-0.3-1-0.5-2.1-0.5-3.2c-0.1-0.6-0.1-1.3-0.1-1.9c0-0.5,0.1-0.9,0.3-1.4
		c0.2-0.5,0.4-1.1,0.5-1.6c0.1-0.2,0.2-0.3,0.2-0.4l0,0c0,0.5-0.1,1-0.1,1.5s0,1.1,0.3,1.6c0.1,0.1,0.1,0.3,0.2,0.5
		c0.4,0.6,0.8,1.2,1.5,1.4c0.5,0.2,1.1,0.4,1.6,0.5c0,0,0.1,0,0.2,0.1C109.4,22.4,109.4,22.9,109.2,23.3z M109.8,20.7
		c0,0.2-0.1,0.3-0.3,0.2c-0.5-0.3-1.1-0.5-1.4-1c-0.1-0.1-0.1-0.2-0.2-0.3c0-0.1-0.1-0.2-0.1-0.3c-0.5-0.9-0.5-1.8-0.2-2.7
		c0.1-0.4,0.2-0.7,0.3-1.1c0.1-0.4,0.4-0.5,0.6-0.7c0.3,0.4,0.5,0.8,0.6,1.2c0.1,0.2,0.2,0.5,0.2,0.6c0.1,0.4,0.2,0.7,0.2,1.1
		c0,0.2,0,0.5,0.1,0.6c0.1,0.5,0.2,0.9,0.2,1.4C109.9,20.1,109.8,20.4,109.8,20.7z M127,24.4c-0.2,0.4-0.5,0.7-0.7,1.1
		c-0.1,0.1-0.2,0.3-0.3,0.4c-0.2,0.5-0.6,0.6-1,1c-0.2,0.2-0.4,0.1-0.5,0c-0.5-0.4-0.7-0.8-0.9-1.4c-0.1-0.3-0.1-0.5-0.2-0.8
		c-0.1-0.4-0.2-0.8-0.3-1.2c-0.1-0.5-0.1-1.1-0.2-1.6c-0.1-0.6-0.1-1.2-0.1-1.8c0-0.8,0.2-1.6,0.5-2.4c0-0.1,0.1-0.3,0.1-0.4
		c0-0.2,0.1-0.4,0.3-0.5c0.1,0,0.1-0.2,0.2-0.3c0,0.3,0,0.5-0.1,0.7c0,0.2,0,0.4,0,0.5c0,0.3,0,0.5,0,0.7c0,0.8,0.3,1.4,0.7,2.1
		c0.3,0.5,0.7,0.8,1.3,1c0.2,0.1,0.5,0.1,0.6,0.2c0.4,0.1,0.7,0.3,1.2,0.4C127.5,22.9,127.3,23.7,127,24.4z M127.9,20.8
		c0,0.1-0.1,0.2-0.2,0.1c-0.4-0.2-0.7-0.3-1-0.6c-0.5-0.5-0.8-1.2-0.9-1.9c0-0.3-0.1-0.6-0.1-0.9c0-0.2,0-0.4,0.1-0.6
		c0.1-0.5,0.2-1,0.4-1.4c0.1-0.3,0.3-0.5,0.6-0.5c0.2,0.4,0.5,0.7,0.6,1.2c0.1,0.3,0.3,0.5,0.2,0.9c0,0.1,0.1,0.3,0.1,0.4
		c0.1,0.4,0.1,0.7,0.2,1.2c0.1,0.5,0.2,1.1,0.2,1.7C128,20.3,127.9,20.5,127.9,20.8z"/>
	<path class="st0" d="M31.4,24.2c0.1-0.1,0.1-0.2,0.2-0.4c0-0.1,0.1-0.2,0.2-0.3c0.1-0.3,0.1-0.5,0.2-0.8c0-0.1,0-0.2,0.1-0.2
		c0.2-0.2,0.1-0.4,0-0.5c-0.1-0.2-0.3-0.1-0.5,0c-0.1,0.1-0.3,0.2-0.3,0.4c-0.2,0.5-0.4,0.9-0.6,1.3c-0.3,0.5-0.7,1-1.2,1.4
		c-0.3,0.2-0.5,0.5-0.7,0.6c-0.4,0.3-0.7,0.2-1.1,0.1c-0.5-0.1-0.6-0.5-0.7-0.9c-0.2-0.6-0.4-1.3-0.4-1.9c0-0.7-0.1-1.4-0.1-2.1
		c0-0.7,0-1.4-0.1-2.3c0-0.5,0-1.2,0-1.7c0-0.8,0-1.6,0-2.4c0-0.2,0-0.4,0-0.5c0-0.4-0.1-0.5-0.5-0.4c-0.4,0-0.7,0.1-1.1,0.2
		c-0.2,0-0.2,0.1-0.2,0.3c0,0.3,0,0.5,0,0.7c-0.4-0.5-0.7-0.7-1.2-1l-0.1-0.1c-0.1,0-0.2-0.1-0.3-0.1c-0.5,0-0.9,0.1-1.3,0.1
		c-0.6,0.1-1.2,0.3-1.7,0.7c-0.5,0.4-1,0.7-1.3,1.4c-0.1,0.2-0.2,0.4-0.3,0.5c0,0.1-0.1,0.1-0.1,0.2c-0.1,0.2-0.1,0.5-0.2,0.6
		c-0.1,0.3-0.3,0.5-0.4,0.9c-0.1,0.5-0.2,0.9-0.2,1.4c-0.1,0.6-0.1,1.4,0.1,2c0.1,0.3,0.1,0.5,0.1,0.7c0,0.1,0,0.2-0.1,0.2
		c-0.4,0.5-0.7,1.1-1,1.6c-0.4,0.5-0.7,1-1.2,1.4c-0.2,0.2-0.4,0.5-0.6,0.5c-0.5,0.2-1,0.4-1.4,0c-0.3-0.2-0.5-0.4-0.7-0.6
		c-0.4-0.5-0.5-1.1-0.6-1.7c-0.2-1.3-0.2-2.4-0.2-3.6c0-0.8,0-1.6,0-2.4c0-1,0.1-2,0.1-3c0-0.1,0-0.1,0.1-0.2c0-0.1,0.1-0.1,0.1-0.2
		c0-0.2-0.1-0.5-0.1-0.6c0-0.5,0-0.8,0-1.3c0.5,0.2,0.9,0.3,1.3,0.5c0.6,0.3,1.3,0.3,1.9,0.3c0.7,0,1.4-0.2,1.9-0.7
		c0.5-0.5,0.7-0.9,0.8-1.5c0-0.2,0-0.5-0.1-0.5c-0.2-0.3-0.4-0.6-0.7-0.8c-0.7-0.7-1.6-0.6-2.5-0.3c-0.3,0.1-0.5,0.4-0.5,0.6
		c0,0.2,0,0.3,0.3,0.3c0.2,0,0.4,0,0.5,0c0.4,0,0.7,0,1.1,0.2c0.4,0.1,0.5,0.4,0.2,0.7c-0.3,0.3-0.6,0.3-1.1,0.3
		c-1-0.1-1.9-0.2-2.8-0.7c-0.3-0.2-0.4-0.3-0.4-0.5c0-0.5,0-1.1,0-1.6c0-0.7,0-1.4,0-2.2c0-0.1,0-0.2,0-0.2c0.1-0.2,0-0.3-0.1-0.3
		c-0.4-0.2-0.7-0.3-1.1-0.3c-0.2,0-0.5,0.1-0.6,0.1h-0.1C10,5.8,9.9,5.9,9.9,6.1c0,0.6,0,1.2,0,1.8c0,0.5,0,0.9,0,1.4
		C9.5,9.2,9.1,9,8.7,8.9C7.3,8.6,6,8.9,4.9,9.7C4.7,9.8,4.6,9.8,4.4,10c-0.5,0.5-0.6,0.9-0.7,1.5c-0.1,0.4-0.1,0.6,0,1
		c0.2,0.3,0.4,0.3,0.6,0.1c0.1-0.1,0.1-0.2,0.1-0.3c0.1-0.6,0.4-1.2,0.9-1.5c0.6-0.4,1.4-0.4,2-0.4c0.8,0.1,1.5,0.5,2.3,0.8l0.1,0.1
		c0,0.2,0,0.5,0.1,0.6c0,0.2,0,0.4,0,0.5c0,1.1,0,2.2-0.1,3.3c0,1-0.1,1.9-0.1,2.9c0,0.6,0,1.3,0,1.8c0,1.2,0,2.4,0.2,3.6
		c0.2,1.4,0.7,2.5,1.9,3.3c0.1,0.1,0.2,0.1,0.4,0.2c0.5,0.1,0.9,0.2,1.4,0.2c0.3,0,0.6,0,0.8-0.1c0.6-0.3,1.3-0.7,1.7-1.3
		c0.1-0.2,0.2-0.3,0.4-0.4c0.5-0.4,0.5-0.9,0.9-1.3c0.2-0.2,0.4-0.5,0.5-0.8c0.1,0.1,0.1,0.2,0.1,0.3c0.1,0.4,0.3,0.6,0.4,1
		c0,0,0,0.1,0.1,0.1c0.2,0.3,0.4,0.5,0.5,0.8c0.1,0.2,0.3,0.4,0.4,0.5c0.5,0.5,0.9,0.9,1.5,1.1c0.3,0.1,0.5,0.1,0.7,0.2
		c0.8,0.2,1.5,0.1,2.3-0.5c0.5-0.4,0.8-0.8,1.3-1.3c0.1-0.1,0.2-0.2,0.2-0.3c0.2,0.4,0.5,0.6,0.6,1c0.2,0.4,0.5,0.6,0.9,0.7
		c0.6,0.2,1.3,0,1.9,0l0,0c0.5-0.2,0.8-0.4,1.1-0.7c0.5-0.5,0.8-1.1,1.2-1.7C31.1,24.9,31.3,24.5,31.4,24.2z M24.5,24.4
		c0,0.5-0.1,0.8-0.4,1.3c-0.3,0.4-0.5,0.8-0.8,1.1C23,27,22.4,27.1,22,26.7c-0.3-0.3-0.6-0.5-0.9-0.8c-0.4-0.4-0.6-0.8-0.7-1.3
		c-0.1-0.4-0.3-0.8-0.4-1.2c-0.1-0.5-0.2-1.1-0.3-1.6c-0.1-0.6-0.1-1.2-0.1-1.8s0-1.3,0.3-1.8c0.2-0.4,0.3-0.8,0.4-1.2
		c0.1-0.2,0.2-0.3,0.3-0.5c0.2-0.4,0.4-0.6,0.6-0.9c0.2-0.3,0.4-0.5,0.5-0.7c0.1-0.1,0.2-0.1,0.3-0.1c0.3-0.2,0.5,0,0.7-0.1
		c0.1,0,0.2,0.2,0.3,0.3c0.2,0.3,0.4,0.5,0.5,0.7c0.2,0.3,0.4,0.6,0.4,1c0.1,0.7,0.3,1.5,0.5,2.3c0.1,0.4,0.1,0.6,0.1,1h-0.1
		c0,0.7,0.1,1.4,0.1,2.3C24.6,22.9,24.5,23.6,24.5,24.4z"/>
	<path class="st0" d="M157.1,19c-0.3-0.1-0.5,0-0.8,0c0-0.2-0.1-0.5-0.1-0.6c-0.1-0.4-0.1-0.8-0.3-1.2c-0.2-0.4-0.4-0.7-0.5-1.1
		c-0.3-0.5-0.5-1.2-1-1.5c-0.5-0.4-1-0.7-1.5-0.7c-0.1,0-0.2,0-0.3-0.1c-0.3-0.1-0.5,0-0.6,0.3c-0.1,0.2-0.2,0.5-0.3,0.6
		c-0.2,0.7-0.5,1.4-0.6,2.1c-0.2,0.6-0.4,1.2-0.5,1.8c-0.1,0.4-0.3,0.7-0.4,1c0,0.1-0.1,0.3,0.1,0.4c0.2,0.1,0.5,0.1,0.7-0.2
		c0.1-0.2,0.2-0.5,0.3-0.6c0.2-0.4,0.4-0.7,0.5-1.1c0.2-0.4,0.4-0.7,0.5-1.1c0.1-0.3,0.2-0.6,0.4-0.9c0.1-0.3,0.3-0.5,0.4-0.8
		c0.1,0.1,0.2,0.1,0.2,0.2c0.1,0.3,0.3,0.5,0.4,0.6c0.2,0.5,0.5,1,0.5,1.6c0.1,0.5,0.2,1,0.3,1.4h-0.1c-1.3,0.2-2.4,0.8-3.6,1.4
		c-0.2,0.1-0.3,0.3-0.5,0.4c-0.1,0.1-0.2,0.3-0.4,0.4c-0.4,0.2-0.5,0.5-0.8,0.8c-0.4,0.5-0.6,1.2-0.7,1.8c-0.1,0.5-0.1,0.8,0,1.2
		c0,0.2,0,0.3-0.2,0.4c-0.2,0.2-0.5,0.3-0.6,0.5c-0.4,0.3-0.7,0.5-1.1,0.5c-0.5,0.1-0.8,0.1-1.4,0c-0.5-0.2-1-0.4-1.4-0.8
		c-0.4-0.4-0.6-0.8-0.9-1.3c-0.5-0.6-0.5-1.4-0.7-2.1c0-0.1,0-0.2,0.1-0.2c0.5-0.4,1-0.7,1.4-1.1c0.1-0.1,0.2-0.1,0.3-0.2
		c0.4-0.4,0.7-0.7,1.1-1.1c0.4-0.4,0.8-0.8,1.1-1.4c0.3-0.5,0.5-1.2,0.5-1.8c0-0.3,0-0.5-0.1-0.7c-0.1-0.3-0.2-0.5-0.3-0.8
		c-0.1-0.4-0.5-0.5-0.7-0.7c-0.4-0.2-0.8-0.4-1.2-0.5c-0.4-0.2-0.6-0.1-1,0c-0.4,0.2-0.8,0.4-1.1,0.6c-0.3,0.3-0.5,0.5-0.8,0.8
		c-0.1,0.1-0.3,0.3-0.4,0.5c-0.2,0.3-0.3,0.6-0.4,0.9c-0.2,0.5-0.4,0.8-0.5,1.3v0.1c-0.1,0.3-0.1,0.6-0.2,0.9
		c-0.1,0.6-0.2,1.3-0.3,2c0,0.5,0,0.8,0.1,1.3c0.1,0.6,0.2,1.4,0.4,2s0.5,1.2,0.8,1.7c0.3,0.4,0.5,0.8,0.9,1.1
		c0.2,0.1,0.3,0.3,0.5,0.4c0.4,0.2,0.6,0.4,1.1,0.4c0.3,0,0.6,0.2,0.9,0.2c0.2,0,0.5-0.1,0.6-0.1c0.4-0.1,0.7-0.1,1.1-0.1
		c0.5-0.1,0.9-0.2,1.4-0.5c0.3-0.3,0.6-0.4,0.9-0.6c0.2-0.1,0.3-0.1,0.4,0.1c0.2,0.2,0.4,0.4,0.5,0.5c0.5,0.5,1.2,0.7,1.8,0.7
		c0.6,0,1.3-0.3,1.9-0.5c0.5-0.2,0.8-0.5,1.2-0.8c0.4-0.4,0.6-0.8,0.9-1.3s0.5-1,0.7-1.5c0.2-0.6,0.4-1.3,0.4-1.9
		c0-0.2,0-0.5,0.1-0.6c0.2-0.4,0-0.6,0-0.9c0-0.2,0-0.4,0-0.5c0.4-0.2,0.7-0.1,1.1,0c0.2,0.1,0.3-0.1,0.4-0.2c0.1-0.1,0.1-0.3,0-0.3
		C157.5,19.2,157.3,19.1,157.1,19z M141.8,21c0.1-0.8,0.1-1.7,0.3-2.5c0.2-0.5,0.3-1.1,0.5-1.6c0.3-0.5,0.5-1,0.9-1.4
		c0.2-0.1,0.3-0.3,0.4-0.5c0.1-0.1,0.2-0.2,0.3-0.3c0.1,0.2,0.2,0.3,0.2,0.5c0,0.5,0,1.2,0,1.7c0,0.2-0.1,0.3-0.2,0.5
		c-0.1,0.3-0.2,0.6-0.4,0.9c-0.1,0.3-0.3,0.6-0.5,0.9c-0.3,0.4-0.5,0.7-0.7,1.1c-0.2,0.3-0.4,0.5-0.5,0.7c-0.1,0.1-0.2,0.2-0.3,0.3
		C141.8,21.1,141.8,21,141.8,21z M154.1,21.3c-0.1,0.6-0.3,1.2-0.4,1.8c-0.1,0.4-0.2,0.8-0.3,1.2c-0.2,0.5-0.4,1-0.7,1.4
		c-0.2,0.2-0.3,0.4-0.4,0.6c-0.3,0.5-0.6,0.6-1,0.8c-0.1-0.1-0.2-0.1-0.3-0.1c-0.3,0-0.4-0.1-0.5-0.3c-0.4-0.7-0.5-1.4-0.3-2.2
		c0.1-0.2,0.3-0.4,0.4-0.5c0.4-0.5,0.5-0.9,0.5-1.4c0-0.2,0.2-0.4,0.3-0.5c0.2-0.2,0.4-0.5,0.6-0.6c0.2-0.2,0.5-0.3,0.6-0.4
		c0.1-0.1,0.2-0.1,0.3-0.2c0.2-0.1,0.4-0.1,0.5-0.2s0.3-0.2,0.4-0.2c0.1,0,0.1,0,0.2-0.1C154.1,20.7,154.1,21,154.1,21.3z"/>
	<path class="st0" d="M137.1,22.6c-1-0.6-2.1-0.7-3.2,0c-1.1,0.6-1.4,1.7-1.3,2.9c0.1,0.6,0.3,1.3,0.7,1.7c0.6,0.6,1.4,0.8,2.1,0.8
		c1.4,0,2.4-0.5,2.7-1.6c0.1-0.4,0.2-0.6,0.2-1C138.6,24.1,138.1,23.2,137.1,22.6z"/>
	<path class="st0" d="M192.1,14.8c-1.9-1-4.8-0.4-4.8-0.4l0.1-0.5l0.5-1.7c-2,0.9-7,0-10.2-0.9c-3.1-0.8-8-2.6-9.3-4.3l-6,22.6
		c-0.3,1.2,3.8,3.3,9.1,4.8c5.4,1.4,10,1.6,10.3,0.4l1.6-5.8c0,0,3.1-0.3,5.3-1.4c2.2-1.1,4.6-2.6,5.5-5.9
		C195.1,18.4,194,15.8,192.1,14.8z M174.9,14.6c0.1-0.3,0.4-0.5,0.7-0.4l3.1,0.8c0.3,0.1,0.5,0.4,0.4,0.7c0,0-0.1,2.7-0.4,2.6
		L174,17C173.7,17,174.9,14.6,174.9,14.6z M168.8,15.4c0.1-0.2,0.3-0.4,0.6-0.3l2.5,0.7c0.2,0.1,0.4,0.3,0.3,0.6
		c-0.1,0.2-0.3,0.4-0.6,0.3l-2.5-0.7C168.9,15.9,168.8,15.6,168.8,15.4z M183,20.8l-2.2,8.2c-0.1,0.4-0.5,0.6-0.8,0.5l-13.9-3.7
		c-0.4-0.1-0.6-0.5-0.5-0.8l2.2-8.2c0.1-0.4,0.5-0.6,0.8-0.5l13.9,3.7C182.9,20.1,183.1,20.5,183,20.8z M192.5,21.4
		c-0.8,3-3.1,3.9-5.2,4.9c-1.1,0.6-2.5,0.8-3.5,0.9l3-11.3c0.7-0.1,1.9-0.3,2.9-0.1c0.3,0.1,0.5,0.2,0.7,0.3
		C192.3,17,193.3,18.8,192.5,21.4z"/>
</g>
<g>
	<path class="st2" d="M15.1,46.9c-0.3,0.3-0.9,0.6-1.5,0.6c-0.7,0-1.3-0.2-1.8-0.8v3.6h-0.9V41h0.9v0.7c0.5-0.7,1.1-0.8,1.8-0.8
		c0.6,0,1.2,0.2,1.5,0.6c0.6,0.6,0.8,1.7,0.8,2.7C15.9,45.2,15.8,46.3,15.1,46.9z M13.4,41.8c-1.4,0-1.6,1.2-1.6,2.4
		s0.2,2.4,1.6,2.4c1.4,0,1.6-1.2,1.6-2.4C15,43,14.8,41.8,13.4,41.8z"/>
	<path class="st2" d="M22,46.7c-0.4,0.4-1,0.7-1.8,0.7s-1.4-0.3-1.8-0.7c-0.6-0.7-0.8-1.5-0.8-2.5c0-1,0.1-1.9,0.8-2.5
		c0.4-0.4,1-0.7,1.8-0.7s1.4,0.3,1.8,0.7c0.6,0.7,0.8,1.5,0.8,2.5C22.7,45.2,22.6,46.1,22,46.7z M21.3,42.3
		c-0.3-0.3-0.7-0.5-1.2-0.5S19.3,42,19,42.3c-0.5,0.5-0.5,1.3-0.5,2c0,0.7,0.1,1.5,0.5,2c0.3,0.3,0.7,0.5,1.1,0.5
		c0.5,0,0.9-0.2,1.2-0.5c0.5-0.5,0.5-1.3,0.5-2C21.8,43.5,21.8,42.7,21.3,42.3z"/>
	<path class="st2" d="M30.7,47.4h-0.9l-1.7-4.9l-1.7,4.9h-0.9l-2-6.3h1l1.5,5.1l1.7-5.1h0.8l1.7,5.1l1.4-5.1h1L30.7,47.4z"/>
	<path class="st2" d="M34.5,44.5c0,1.4,0.7,2.2,1.9,2.2c0.7,0,1.2-0.2,1.7-0.7l0.6,0.6c-0.6,0.6-1.2,1-2.3,1c-1.7,0-2.8-1-2.8-3.3
		c0-2.1,1-3.3,2.6-3.3c1.6,0,2.6,1.2,2.6,3.1v0.4H34.5z M37.7,42.7c-0.2-0.6-0.8-1-1.5-1s-1.2,0.4-1.5,1c-0.1,0.3-0.2,0.5-0.2,1.1
		h3.4C37.9,43.2,37.8,43.1,37.7,42.7z"/>
	<path class="st2" d="M44.3,42.3c-0.3-0.3-0.6-0.5-1.1-0.5c-0.9,0-1.5,0.7-1.5,1.7v3.9h-0.9V41h0.9v0.8c0.3-0.5,1-0.9,1.8-0.9
		c0.6,0,1.1,0.1,1.5,0.6L44.3,42.3z"/>
	<path class="st2" d="M46.4,44.5c0,1.4,0.7,2.2,1.9,2.2c0.7,0,1.2-0.2,1.7-0.7l0.6,0.6c-0.6,0.6-1.2,1-2.3,1c-1.7,0-2.8-1-2.8-3.3
		c0-2.1,1-3.3,2.6-3.3c1.6,0,2.6,1.2,2.6,3.1v0.4H46.4z M49.5,42.7c-0.2-0.6-0.8-1-1.5-1s-1.2,0.4-1.5,1c-0.1,0.3-0.2,0.5-0.2,1.1
		h3.4C49.7,43.2,49.7,43.1,49.5,42.7z"/>
	<path class="st2" d="M56.4,47.4v-0.8c-0.5,0.7-1.1,0.8-1.8,0.8c-0.6,0-1.2-0.2-1.5-0.6c-0.6-0.6-0.8-1.7-0.8-2.7
		c0-1,0.1-2.1,0.8-2.7c0.3-0.3,0.9-0.6,1.5-0.6c0.7,0,1.3,0.2,1.8,0.8v-3.6h0.9v9.2L56.4,47.4L56.4,47.4z M54.8,41.8
		c-1.4,0-1.6,1.2-1.6,2.4s0.2,2.4,1.6,2.4c1.4,0,1.6-1.2,1.6-2.4C56.4,43,56.2,41.8,54.8,41.8z"/>
	<path class="st2" d="M67.1,46.9c-0.3,0.3-0.9,0.6-1.5,0.6c-0.7,0-1.3-0.2-1.8-0.8v0.8h-0.9v-9.2h0.9v3.6c0.5-0.7,1.1-0.8,1.8-0.8
		c0.6,0,1.2,0.2,1.5,0.6c0.6,0.6,0.8,1.7,0.8,2.7C67.9,45.2,67.8,46.3,67.1,46.9z M65.4,41.8c-1.4,0-1.6,1.2-1.6,2.4
		s0.2,2.4,1.6,2.4c1.4,0,1.6-1.2,1.6-2.4C67,43,66.8,41.8,65.4,41.8z"/>
	<path class="st2" d="M71.5,48.9c-0.1,0.3-0.3,0.6-0.5,0.7c-0.3,0.3-0.8,0.4-1.2,0.4h-0.4v-0.8h0.3c0.6,0,0.8-0.2,1-0.8l0.5-1.2
		L68.9,41h1l1.7,5.1l1.7-5.1h1L71.5,48.9z"/>
</g>
<g>
	<g>
		<g>
			<polygon class="st3" points="137,37.5 141.2,41.7 146.3,36.1 142.7,43.4 145.4,49.3 141.2,45.2 137.2,49.3 139.8,43.5 			"/>
		</g>
	</g>
	<g>
		<g>
			<polygon class="st4" points="135.8,37.5 140,41.7 145.1,36.1 141.4,43.4 144.2,49.3 140,45.2 136,49.3 138.6,43.5 			"/>
		</g>
	</g>
	<g>
		<g>
			<polygon class="st5" points="135,37.5 139.2,41.7 144.2,36.1 140.6,43.4 143.3,49.3 139.1,45.2 135.1,49.3 137.7,43.5 			"/>
		</g>
	</g>
	<path class="st6" d="M89.3,44.7c0,1.5-0.4,2.6-1.1,3.3c-0.6,0.5-1.5,0.9-2.6,0.9c-0.8,0-1.6-0.1-2.4-0.5c-0.8,0.3-1.6,0.5-2.4,0.5
		c-1.1,0-1.9-0.3-2.6-0.9c-0.8-0.7-1.1-1.8-1.1-3.3V39c0-0.2,0.1-0.4,0.4-0.4h0.9c0.2,0,0.4,0.1,0.4,0.4v5.7c0,1.8,0.7,2.7,2.3,2.7
		c0.2,0,0.5,0,0.7-0.1c0.2,0,0.4-0.1,0.7-0.2V39c0-0.2,0.1-0.4,0.4-0.4h0.9c0.2,0,0.4,0.1,0.4,0.4v8.2c0.3,0.1,0.6,0.1,0.8,0.2
		c0.3,0,0.5,0.1,0.7,0.1c1.5,0,2.3-0.9,2.3-2.7V39c0-0.2,0.1-0.4,0.4-0.4h0.9c0.2,0,0.4,0.1,0.4,0.4L89.3,44.7L89.3,44.7z"/>
	<path class="st6" d="M109.5,48.4c0,0.2-0.2,0.3-0.4,0.3h-1c-0.2,0-0.3-0.1-0.3-0.4v-6.5c0-1.3-0.5-1.9-1.6-1.9h-1.3
		c-1,0-1.6,0.6-1.6,1.9v6.5c0,0.2-0.1,0.4-0.3,0.4h-1c-0.2,0-0.3-0.1-0.3-0.4v-6.5c0-0.6,0.1-1.2,0.3-1.7c0.2-0.4,0.5-0.8,0.8-1
		c0.3-0.2,0.6-0.4,1-0.5c0.3-0.1,0.6-0.1,1-0.1h1.3c0.4,0,0.7,0,1,0.1c0.4,0.1,0.7,0.3,1,0.5c0.4,0.3,0.6,0.6,0.8,1
		c0.2,0.5,0.3,1,0.3,1.7L109.5,48.4L109.5,48.4L109.5,48.4L109.5,48.4z"/>
	<path class="st6" d="M129.4,44.3c0,3-1.3,4.5-4,4.5c-0.7,0-1.4,0-2.1-0.2v3.3c0,0.2-0.1,0.4-0.4,0.4h-1c-0.2,0-0.3-0.1-0.3-0.4
		V39.4c0-0.2,0.1-0.4,0.4-0.4c1.1-0.3,2.3-0.4,3.4-0.4c1.3,0,2.3,0.4,3,1.2c0.6,0.8,1,1.9,1,3.3L129.4,44.3L129.4,44.3z M127.9,43
		c0-1-0.2-1.8-0.5-2.3c-0.4-0.6-1-0.9-1.9-0.9c-0.7,0-1.4,0-2.1,0.2v7.2c0.7,0.1,1.4,0.2,2.1,0.2c1.6,0,2.4-1,2.4-3.1L127.9,43
		L127.9,43L127.9,43z"/>
	<path class="st6" d="M133.4,48.3c0,0.2-0.1,0.4-0.4,0.4h-0.9c-0.2,0-0.4-0.1-0.4-0.4V39c0-0.2,0.1-0.4,0.4-0.4h0.9
		c0.2,0,0.4,0.1,0.4,0.4V48.3z"/>
	<path class="st6" d="M133.5,36.7c0,0.2-0.1,0.4-0.4,0.4h-1c-0.2,0-0.4-0.1-0.4-0.4v-1.4c0-0.2,0.1-0.4,0.4-0.4h1
		c0.2,0,0.4,0.1,0.4,0.4V36.7z"/>
	<g>
		<path class="st6" d="M99.2,48c0,0.2-0.1,0.4-0.4,0.4c-1.1,0.3-2.3,0.4-3.4,0.4c-1.3,0-2.3-0.4-3-1.2c-0.6-0.8-1-1.9-1-3.3V43
			c0-1.4,0.3-2.5,1-3.3c0.7-0.8,1.7-1.2,3-1.2c1.1,0,2.2,0.1,3.4,0.4c0.3,0,0.4,0.2,0.4,0.4V48z M97.6,40.1
			c-0.6-0.1-1.4-0.2-2.1-0.2c-0.9,0-1.5,0.3-1.9,0.9c-0.3,0.5-0.5,1.3-0.5,2.3v1.3c0,1,0.2,1.8,0.5,2.3c0.4,0.6,1,0.9,1.9,0.9
			c0.7,0,1.4,0,2.1-0.2V40.1z"/>
		
			<rect x="98.3" y="46.9" transform="matrix(0.9754 -0.2205 0.2205 0.9754 -8.0518 23.0502)" class="st6" width="1.8" height="1.4"/>
	</g>
	<g>
		<path class="st6" d="M119.3,48c0,0.2-0.1,0.4-0.4,0.4c-1.1,0.3-2.3,0.4-3.4,0.4c-1.3,0-2.3-0.4-3-1.2c-0.6-0.8-1-1.9-1-3.3V43
			c0-1.4,0.3-2.5,1-3.3c0.7-0.8,1.7-1.2,3-1.2c1.1,0,2.2,0.1,3.4,0.4c0.3,0,0.4,0.2,0.4,0.4V48z M117.7,40.1
			c-0.6-0.1-1.4-0.2-2.1-0.2c-0.9,0-1.5,0.3-1.9,0.9c-0.3,0.5-0.5,1.3-0.5,2.3v1.3c0,1,0.2,1.8,0.5,2.3c0.4,0.6,1,0.9,1.9,0.9
			c0.7,0,1.4,0,2.1-0.2V40.1z"/>
		
			<rect x="118.4" y="46.9" transform="matrix(0.9754 -0.2205 0.2205 0.9754 -7.5577 27.4745)" class="st6" width="1.8" height="1.4"/>
	</g>
</g>
</svg>
